# xmcd
#
# Track frame offsets:
# 150
# 12607
# 31570
# 46482
# 67746
# 80309
# 107125
# 116917
# 132920
# 148486
#
# Disc length: 2136 seconds
#
# Revision: 1
# Processed by: cddbd v1.4PL0 Copyright (c) Steve Scherf et al.
# Submitted via: Easy CD Ripper 1.45
#
DISCID=8808560a
DTITLE=Katrina Rodriquez - Katrina Tried
DYEAR=2003
DGENRE=Country
TTITLE0=I Will Always Love You
TTITLE1=Katrina Rodriquez - Amazing Grace
TTITLE2=Katrina Rodriquez - Crying My Heart Out Over You
TTITLE3=Katrina Rodriquez - How About You
TTITLE4=Katrina Rodriquez - I'll Fly Away
TTITLE5=Katrina Rodriquez - In The Garden
TTITLE6=Katrina Rodriquez - Let It Be Me
TTITLE7=Katrina Rodriquez - Sweet Dreams
TTITLE8=Katrina Rodriquez - Too Much To Gain To Lose
TTITLE9=Katrina Rodriquez - When You Say Nothing At All
EXTD=Katrina's First Album
EXTT0=
EXTT1=
EXTT2=
EXTT3=
EXTT4=
EXTT5=
EXTT6=
EXTT7=
EXTT8=
EXTT9=
PLAYORDER=
